<svg width="84" height="36" viewBox="0 0 84 36" fill="none" xmlns="http://www.w3.org/2000/svg">
<rect x="1.75" y="1.75" width="80.5" height="32.5" rx="2.25" stroke="#9747FF" stroke-width="3.5"/>
<rect x="16" y="23" width="52" height="6" rx="2" fill="#9747FF"/>
<rect x="70" y="23" width="7" height="6" rx="2" fill="#9747FF"/>
<rect x="7" y="23" width="7" height="6" rx="2" fill="#9747FF"/>
<rect x="12" y="15" width="7" height="6" rx="2" fill="#9747FF"/>
<rect x="70" y="7" width="7" height="6" rx="2" fill="#9747FF"/>
<rect x="61" y="7" width="7" height="6" rx="2" fill="#9747FF"/>
<rect x="52" y="7" width="7" height="6" rx="2" fill="#9747FF"/>
<rect x="43" y="7" width="7" height="6" rx="2" fill="#9747FF"/>
<rect x="34" y="7" width="7" height="6" rx="2" fill="#9747FF"/>
<rect x="25" y="7" width="7" height="6" rx="2" fill="#9747FF"/>
<rect x="16" y="7" width="7" height="6" rx="2" fill="#9747FF"/>
<rect x="7" y="7" width="7" height="6" rx="2" fill="#9747FF"/>
<rect x="21" y="15" width="7" height="6" rx="2" fill="#9747FF"/>
<rect x="66" y="15" width="7" height="6" rx="2" fill="#9747FF"/>
<rect x="57" y="15" width="7" height="6" rx="2" fill="#9747FF"/>
<rect x="48" y="15" width="7" height="6" rx="2" fill="#9747FF"/>
<rect x="39" y="15" width="7" height="6" rx="2" fill="#9747FF"/>
<rect x="30" y="15" width="7" height="6" rx="2" fill="#9747FF"/>
</svg>
