<svg width="24" height="26" viewBox="0 0 24 26" fill="none" xmlns="http://www.w3.org/2000/svg">
<path d="M10.3125 4.46875C10.3125 3.79565 10.8162 3.25 11.4375 3.25H12.5625C13.1838 3.25 13.6875 3.79565 13.6875 4.46875L13.8226 5.49291C13.9435 6.40992 14.9272 6.85134 15.6112 6.29555L16.3752 5.67482C16.8146 5.19887 17.5269 5.19887 17.9662 5.67482L18.7617 6.53661C19.201 7.01256 19.201 7.78423 18.7617 8.26018L18.1887 9.08782C17.6757 9.82887 18.0832 10.8946 18.9296 11.0256L19.875 11.1719C20.4963 11.1719 21 11.7175 21 12.3906V13.6094C21 14.2825 20.4963 14.8281 19.875 14.8281L18.9296 14.9744C18.0832 15.1054 17.6757 16.1711 18.1887 16.9122L18.7617 17.7398C19.201 18.2158 19.201 18.9874 18.7617 19.4634L17.9662 20.3252C17.5269 20.8011 16.8146 20.8011 16.3752 20.3252L15.6112 19.7045C14.9272 19.1487 13.9435 19.5901 13.8226 20.5071L13.6875 21.5312C13.6875 22.2043 13.1838 22.75 12.5625 22.75H11.4375C10.8162 22.75 10.3125 22.2043 10.3125 21.5312L10.1774 20.5071C10.0565 19.5901 9.0728 19.1487 8.38875 19.7045L7.62478 20.3252C7.18544 20.8011 6.47313 20.8011 6.03379 20.3252L5.23829 19.4634C4.79895 18.9874 4.79895 18.2158 5.23829 17.7398L5.81128 16.9122C6.32431 16.1711 5.91685 15.1054 5.07038 14.9744L4.125 14.8281C3.50368 14.8281 3 14.2825 3 13.6094V12.3906C3 11.7175 3.50368 11.1719 4.125 11.1719L5.07037 11.0256C5.91684 10.8946 6.32431 9.82887 5.81127 9.08782L5.23829 8.26018C4.79895 7.78423 4.79895 7.01256 5.23829 6.5366L6.03379 5.67482C6.47313 5.19887 7.18544 5.19887 7.62478 5.67482L8.38875 6.29555C9.0728 6.85134 10.0565 6.40991 10.1774 5.49291L10.3125 4.46875Z" stroke="#9747FF" stroke-width="2" stroke-linecap="round" stroke-linejoin="round"/>
<ellipse cx="12" cy="13" rx="2" ry="2.16667" stroke="#9747FF" stroke-width="2" stroke-linecap="round" stroke-linejoin="round"/>
</svg>
